# xmcd CD database file
#
# Track frame offsets:
#	182
#	17832
#	32580
#	49915
#	62185
#	75295
#	89680
#	105005
#	121380
#	141857
#	155407
#	175257
#	188705
#	205485
#	220170
#	244445
#
# Disc length: 3419 seconds
#
# Revision: 0
# Processed by: cddbd v1.5.2PL0 Copyright (c) Steve Scherf et al.
# Submitted via: CDex 1.51
#
DISCID=db0d5910
DTITLE=Various Artist - Indo Minded Vol.1
DYEAR=1900
DGENRE=Country
TTITLE0=Dansando Lambada - The Tropics
TTITLE1=You're The First, The Last, My Everything - No Idea
TTITLE2=Memories Are Made Of This - The Entertainers
TTITLE3=Honkey Tonk Blues - Country Connection
TTITLE4=I Feel Good - Cold Sweat
TTITLE5=Blue Hotel - Field Brothers Band
TTITLE6=You Needed Me - East Wind
TTITLE7=It Ain't Over Till It's Over - First Step
TTITLE8=Gigolo - No Idea
TTITLE9=1.2.3. - Hell Cats
TTITLE10=Are You Ready For Loving Me - Time
TTITLE11=6.3.4.5.7.8.9. - Expresso
TTITLE12=Unchained Melodie - First Step
TTITLE13=Tu Solo Tu - Eastwind
TTITLE14=Fly To High - The Tropics
TTITLE15=Sweet Soul Music - Cold Sweat
EXTD=
EXTT0=
EXTT1=
EXTT2=
EXTT3=
EXTT4=
EXTT5=
EXTT6=
EXTT7=
EXTT8=
EXTT9=
EXTT10=
EXTT11=
EXTT12=
EXTT13=
EXTT14=
EXTT15=
PLAYORDER=
